<svg width="74" height="74" viewBox="0 0 74 74" fill="none" xmlns="http://www.w3.org/2000/svg">
<rect width="74" height="74" fill="black"/>
<path d="M22.9512 58V15.3438H36.8965C41.5254 15.3438 45.002 16.3008 47.3262 18.2148C49.6699 20.1289 50.8418 22.9609 50.8418 26.7109C50.8418 28.7031 50.2754 30.4707 49.1426 32.0137C48.0098 33.5371 46.4668 34.7188 44.5137 35.5586C46.8184 36.2031 48.6348 37.4336 49.9629 39.25C51.3105 41.0469 51.9844 43.1953 51.9844 45.6953C51.9844 49.5234 50.7441 52.5312 48.2637 54.7188C45.7832 56.9062 42.2773 58 37.7461 58H22.9512ZM28.5762 38.0488V53.4004H37.8633C40.4805 53.4004 42.541 52.7266 44.0449 51.3789C45.5684 50.0117 46.3301 48.1367 46.3301 45.7539C46.3301 40.6172 43.5371 38.0488 37.9512 38.0488H28.5762ZM28.5762 33.5371H37.0723C39.5332 33.5371 41.4961 32.9219 42.9609 31.6914C44.4453 30.4609 45.1875 28.791 45.1875 26.6816C45.1875 24.3379 44.5039 22.6387 43.1367 21.584C41.7695 20.5098 39.6895 19.9727 36.8965 19.9727H28.5762V33.5371Z" fill="white"/>
</svg>
